{"title":"Piranha 3DD (2012).BRrip.XviD - Italian English.Ac3.5.1.Sub.ita.","uid":12230032,"size":1493842027,"categoryP":"video","categoryS":"movies","magnet":"?xt=urn:btih:29e63d284d1e9299582d939554f4742cc66d275b&amp;dn=Piranha+3DD+%282012%29.BRrip.XviD+-+Italian+English.Ac3.5.1.Sub.ita.&amp;tr=udp%3A%2F%2Ftracker.openbittorrent.com%3A80&amp;tr=udp%3A%2F%2Fopen.demonii.com%3A1337&amp;tr=udp%3A%2F%2Ftracker.coppersurfer.tk%3A6969&amp;tr=udp%3A%2F%2Fexodus.desync.com%3A6969","seeders":8,"leechers":1,"uploader":"robbyrs4","files":3,"time":1439553534,"description":"Piranha 3DD (2012).BRrip.XviD - Italian English.Ac3.5.1.Sub.ita.MIRCrew\n\n[center]\n\n[color=red][b][img]http://s19.postimg.org/w9ws99nmb/banner_mircrew_original_2.png[/img]\n\n[u]NO FOUND ONLY ORIGINAL RELEASE[/u]\n\nPiranha 3DD (2012)\n\n[url=http://postimg.org/image/j64ejt9ht/][img]http://s8.postimg.org/j64ejt9ht/image.jpg[/img][/url]\n\n\n[URL=http://www.imdb.com/title/tt1714203/][IMG]http://www.userlogos.org/files/logos/Sucka/imdb_new.png[/IMG][/URL]  \n\n[img]http://s19.postimg.org/vz5tzn42b/1_scheda.png[/img]\n\nTitolo originale \tPiranha 3DD\nPaese di produzione \tStati Uniti d'America\nAnno \t2012\nDurata \t90 minuti\nGenere \thorror, commedia\nRegia \tJohn Gulager\nSceneggiatura \tMarcus Dunstan, Patrick Melton\nProduttore \tMark Canton, Joel Soisson, Marc Toberoff\n\n\n[img]http://s19.postimg.org/q8fnlww2b/1_cast.png[/img]\n\n\n    Danielle Panabaker : Maddy\n    Matt Bush : Barry\n    Ving Rhames: sceriffo Fallon\n    Christopher Lloyd: Carl Goodman\n    Paul Scheer: Andrew Cunnigham\n    Katrina Bowden: Shelby\n    Gary Busey: Clayton\n    David Hasselhoff: Se stesso\n    Chris Zylka: Kyle\n    David Koechner: Chet\n    Cody Kennedy: Bagnino Cody\n    Jean-Luc Bilodeau: Josh\n    Meagan Tandy: Ashley\n    Paul James Jordan: Travis\n    Clu Gulager: Mo\n\n   \n[img]http://s19.postimg.org/okgi79i6r/1_trama.png[/img]\n\nDopo un anno dalle vicende del Lago Victoria due pescatori, Clayton e Mo, scoprono delle uova di Nicocentlus Natteteri nel cadavere di una vacca, ma subito dopo la scoperta le uova si schiudono e i piranha sbranano i due pescatori. In seguito Maddy, la co-proprietaria di un parco acquatico, scopre che il patrigno Chet vuole usare parte del budget per assumere delle spogliarellista, dimezzando i bagnini. Una giovane coppia, Shelby e Josh, vanno nel lago a nuotare nudi, ma un piranha entra nella.................\n\n[img]http://s19.postimg.org/fzn6g380j/1_story.png[/img]\n\nHaving awoken from their spring break extravaganza at Lake Victoria, the swarm heads upstream where they look to make a meal out of Big Wet, a local water park where when it comes to fun, nobody does it wetter! Though they came to get wet, get loaded and get some, the staff and patrons get more than they bargained for when they must face the fiercest, most bloodthirsty piranhas yet. .................\n &lt;a href=&quot;\nhttp://extraimago.com/images/2015/08/14/110157.png&quot; rel=&quot;nofollow&quot; target=&quot;_NEW&quot;&gt;\nhttp://extraimago.com/images/2015/08/14/110157.png&lt;/a&gt;\n\n[url=http://extraimago.com/image/q4z][img]http://extraimago.com/images/2015/08/14/2.th.png[/img][/url] [url=http://extraimago.com/image/q40][img]http://extraimago.com/images/2015/08/14/3.th.png[/img][/url] [url=http://extraimago.com/image/q4J][img]http://extraimago.com/images/2015/08/14/471a18.th.png[/img][/url] [url=http://extraimago.com/image/q4K][img]http://extraimago.com/images/2015/08/14/5.th.png[/img][/url]\n\n[IMG]http://img153.imageshack.us/img153/3158/restateinseedblood.gif[/img]\n\n\n[img]http://imgur.com/lvhU6.gif[/img]\n\n\n[img]http://s19.postimg.org/a2jaz9qvn/1_dati.png[/img]\n\n\n[spoiler]\nGeneral\nComplete name                            : Piranha.3DD.(2012).ita.eng.sub.ita.MIRCrewPiranha.3DD.(2012).ita.eng.sub.ita.MIRCrew.avi\nFormat                                   : AVI\nFormat/Info                              : Audio Video Interleave\nFile size                                : 1.39 GiB\nDuration                                 : 1h 23mn\nOverall bit rate                         : 2 395 Kbps\nMovie name                               : ENCODED by\nDirector                                 : MIRCrew by robbyrs\nWriting application                      : VirtualDubMod 1.5.10.2 (build 2540/release)\nWriting library                          : VirtualDubMod build 2540/release\n\nVideo\nID                                       : 0\nFormat                                   : MPEG-4 Visual\nFormat profile                           : Simple@L3\nFormat settings, BVOP                    : No\nFormat settings, QPel                    : No\nFormat settings, GMC                     : No warppoints\nFormat settings, Matrix                  : Default (H.263)\nCodec ID                                 : XVID\nCodec ID/Hint                            : XviD\nDuration                                 : 1h 23mn\nBit rate                                 : 1 488 Kbps\nWidth                                    : 688 pixels\nHeight                                   : 386 pixels\nDisplay aspect ratio                     : 16:9\nFrame rate                               : 23.976 fps\nColor space                              : YUV\nChroma subsampling                       : 4:2:0\nBit depth                                : 8 bits\nScan type                                : Progressive\nCompression mode                         : Lossy\nBits/(Pixel*Frame)                       : 0.234\nStream size                              : 885 MiB (62%)\nWriting library                          : XviD 64\n\nAudio #1\nID                                       : 1\nFormat                                   : AC-3\nFormat/Info                              : Audio Coding 3\nMode extension                           : CM (complete main)\nCodec ID                                 : 2000\nDuration                                 : 1h 22mn\nBit rate mode                            : Constant\nBit rate                                 : 448 Kbps\nChannel(s)                               : 6 channels\nChannel positions                        : Front: L C R, Side: L R, LFE\nSampling rate                            : 48.0 KHz\nBit depth                                : 16 bits\nCompression mode                         : Lossy\nStream size                              : 265 MiB (19%)\nAlignment                                : Split accross interleaves\nInterleave, duration                     : 42 ms (1.01 video frame)\nInterleave, preload duration             : 500 ms\n\nAudio #2\nID                                       : 2\nFormat                                   : AC-3\nFormat/Info                              : Audio Coding 3\nMode extension                           : CM (complete main)\nCodec ID                                 : 2000\nDuration                                 : 1h 23mn\nBit rate mode                            : Constant\nBit rate                                 : 448 Kbps\nChannel(s)                               : 6 channels\nChannel positions                        : Front: L C R, Side: L R, LFE\nSampling rate                            : 48.0 KHz\nBit depth                                : 16 bits\nCompression mode                         : Lossy\nStream size                              : 266 MiB (19%)\nAlignment                                : Split accross interleaves\nInterleave, duration                     : 42 ms (1.00 video frame)\nInterleave, preload duration             : 500 ms\n\n\n[/spoiler]\n\n[/color][/b][/center]","torrent":{"xt":"urn:btih:29e63d284d1e9299582d939554f4742cc66d275b","amp;dn":"Piranha+3DD+%282012%29.BRrip.XviD+-+Italian+English.Ac3.5.1.Sub.ita.","amp;tr":["udp%3A%2F%2Ftracker.openbittorrent.com%3A80","udp%3A%2F%2Fopen.demonii.com%3A1337","udp%3A%2F%2Ftracker.coppersurfer.tk%3A6969","udp%3A%2F%2Fexodus.desync.com%3A6969"],"infoHash":"29e63d284d1e9299582d939554f4742cc66d275b","infoHashBuffer":{"type":"Buffer","data":[41,230,61,40,77,30,146,153,88,45,147,149,84,244,116,44,198,109,39,91]},"announce":[],"urlList":[]}}